<?xml version="1.0" encoding="UTF-8"?>
<svg version="1.1" xmlns="http://www.w3.org/2000/svg" width="1536" height="1024">
<path d="M0 0 C506.88 0 1013.76 0 1536 0 C1536 337.92 1536 675.84 1536 1024 C1029.12 1024 522.24 1024 0 1024 C0 686.08 0 348.16 0 0 Z " fill="#FDFDFD" transform="translate(0,0)"/>
<path d="M0 0 C0.66 0 1.32 0 2 0 C16.01462393 33.04758481 18.53713258 64.62851108 5.10791016 98.43310547 C2.82382716 103.72505096 0.10513805 108.7963474 -2.71118164 113.82177734 C-5.86706023 119.1049667 -5.86706023 119.1049667 -7 125 C-6.08805661 127.84606094 -4.85550216 130.49678929 -3.5625 133.1875 C0 140.80785714 0 140.80785714 0 143 C0.66 143 1.32 143 2 143 C2.37125 142.13181641 2.37125 142.13181641 2.75 141.24609375 C4.18957582 138.65935596 5.83395172 137.07769849 8 135.0625 C25.95751981 117.42153904 41.02950741 92.10726843 41.4375 66.4375 C41.37580531 56.3027453 38.93123241 48.50883512 32 41 C32 40.34 32 39.68 32 39 C31.360625 38.71125 30.72125 38.4225 30.0625 38.125 C28 37 28 37 27 35 C38.1106428 36.66659642 46.8853155 41.99691541 54.28125 50.3984375 C58.88378842 57.36500701 60.73162055 63.60698553 60.625 71.9375 C60.61662109 72.84773926 60.60824219 73.75797852 60.59960938 74.69580078 C59.7349485 101.1461449 42.4411283 122.70745567 25 141 C24.27296875 141.77988281 23.5459375 142.55976563 22.796875 143.36328125 C16.44340999 149.98735681 9.3129478 155.49247339 2 161 C1.4524707 161.41894531 0.90494141 161.83789062 0.34082031 162.26953125 C-35.43543567 189.5399986 -79.88215805 206.16553599 -124 213 C-125.21171875 213.20496094 -126.4234375 213.40992188 -127.671875 213.62109375 C-131.94315622 214.10737811 -136.14337454 214.10748278 -140.4375 214.0625 C-141.26443359 214.05798828 -142.09136719 214.05347656 -142.94335938 214.04882812 C-144.96227146 214.03715811 -146.98114574 214.01922718 -149 214 C-145.40208586 210.30195838 -141.65031544 206.92549833 -137.6875 203.625 C-136.52567265 202.64887656 -135.36421283 201.67231549 -134.203125 200.6953125 C-133.64818359 200.22899414 -133.09324219 199.76267578 -132.52148438 199.28222656 C-126.24679421 193.99424955 -120.19062038 188.46904927 -114.16015625 182.90625 C-112.17956299 181.07968275 -110.18766873 179.26991587 -108.18359375 177.46875 C-100.43897872 170.45631562 -93.01951815 163.1276376 -85.625 155.75 C-85.10280884 155.23039703 -84.58061768 154.71079407 -84.04260254 154.17544556 C-78.14077582 148.29669277 -72.40703278 142.34263172 -67 136 C-66.00268369 134.8778175 -65.00272595 133.75797635 -64 132.640625 C-38.68726778 104.1569945 -15.95556983 70.83053375 -5 34 C-5.27038086 34.59723877 -5.54076172 35.19447754 -5.81933594 35.80981445 C-14.68338608 55.23753878 -25.24283672 72.89975417 -38 90 C-38.40428223 90.54317871 -38.80856445 91.08635742 -39.22509766 91.64599609 C-45.50106386 100.03633854 -52.15894916 108.06650228 -59 116 C-59.61488281 116.71671875 -60.22976563 117.4334375 -60.86328125 118.171875 C-65.62399555 123.67112493 -70.5610261 129.0106479 -75.49121094 134.35742188 C-77.05550596 136.06042785 -78.61041787 137.77165088 -80.1640625 139.484375 C-81.21349775 140.6354567 -82.26297586 141.78649934 -83.3125 142.9375 C-84.03119263 143.73450317 -84.03119263 143.73450317 -84.7644043 144.54760742 C-87.9477204 148.02607271 -91.35253525 150.99818951 -95 154 C-96.69064371 155.64233961 -98.35624838 157.3107291 -100 159 C-107.13188926 166.30093468 -114.20013343 173.38865166 -122.22265625 179.7265625 C-125.44105405 182.36103159 -128.46753145 185.1559774 -131.5 188 C-137.13136843 193.26693217 -142.97961188 198.18023448 -149 203 C-151.06645599 204.68271361 -153.12672195 206.37281991 -155.1875 208.0625 C-156.79166667 209.375 -158.39583333 210.6875 -160 212 C-160.33 211.34 -160.66 210.68 -161 210 C-160.17407227 207.7421875 -160.17407227 207.7421875 -158.81640625 204.875 C-158.30843506 203.79186523 -157.80046387 202.70873047 -157.27709961 201.59277344 C-156.71128174 200.4071582 -156.14546387 199.22154297 -155.5625 198 C-154.97917837 196.76368615 -154.39659162 195.52702533 -153.81469727 194.29003906 C-152.55800124 191.62172492 -151.2966713 188.95566626 -150.03222656 186.29101562 C-147.91206943 181.81990791 -145.81058097 177.34014435 -143.7109375 172.859375 C-138.15377337 161.00907442 -138.15377337 161.00907442 -135.43359375 155.234375 C-135.127668 154.58432495 -134.82174225 153.9342749 -134.50654602 153.26452637 C-132.89984775 149.8625688 -131.25066879 146.4889204 -129.53515625 143.140625 C-127.85361666 140.28315284 -127.85361666 140.28315284 -128 138 C-129.49626009 136.77441747 -129.49626009 136.77441747 -131.48828125 135.6015625 C-132.2477002 135.128396 -133.00711914 134.65522949 -133.78955078 134.16772461 C-134.62212402 133.65862549 -135.45469727 133.14952637 -136.3125 132.625 C-138.06650302 131.535312 -139.82040655 130.44546384 -141.57421875 129.35546875 C-142.4770459 128.79778809 -143.37987305 128.24010742 -144.31005859 127.66552734 C-148.43064743 125.11418799 -152.52844275 122.52718975 -156.625 119.9375 C-157.41092529 119.44145264 -158.19685059 118.94540527 -159.0065918 118.43432617 C-167.04595279 113.35347654 -175.02528648 108.18148211 -183 103 C-192.81090291 96.63135 -202.64566897 90.30127836 -212.5 84 C-215.67623142 81.96715429 -218.85230694 79.93406526 -222.02832031 77.90087891 C-223.92791887 76.68577257 -225.82823938 75.47179367 -227.72949219 74.25927734 C-230.11350715 72.73872423 -232.49460725 71.21371488 -234.875 69.6875 C-235.56400391 69.24986328 -236.25300781 68.81222656 -236.96289062 68.36132812 C-239.94160325 66.44578678 -242.55763 64.55895636 -245 62 C-240.27588257 61.97463509 -235.55180761 61.95683877 -230.82763672 61.94506836 C-229.23192655 61.94014431 -227.6362206 61.93340511 -226.04052734 61.92456055 C-217.09010995 61.87631797 -208.18804989 62.00469551 -199.25 62.48828125 C-183.81462455 63.28719864 -168.35815562 63.2238788 -152.90625 63.24023438 C-149.38889235 63.2446267 -145.87177892 63.2585794 -142.35449219 63.28125 C-101.09237231 63.54157363 -48.68537415 62.61177623 -16.84008789 32.02319336 C-7.33474671 22.46751498 -2.87954137 13.08882439 0 0 Z " fill="#ED5B02" transform="translate(662,252)"/>
<path d="M0 0 C-0.75359699 4.94548025 -1.83110678 9.76570257 -3 14.625 C-3.31614258 15.94431519 -3.31614258 15.94431519 -3.63867188 17.2902832 C-13.39654535 57.76450979 -13.39654535 57.76450979 -18.52807617 75.68774414 C-19.96958929 80.75478284 -21.07997944 85.81442957 -22 91 C-25.830153 89.66012316 -28.52459793 87.97767866 -31.625 85.375 C-36.92354962 81.0180601 -42.42076868 76.98819577 -48 73 C-51.05610264 76.04361742 -54.08788086 79.1077522 -57.09648132 82.19851685 C-80.54917274 106.26203469 -80.54917274 106.26203469 -94.03320312 115.62744141 C-96.08277953 117.05776893 -98.09683009 118.52981422 -100.109375 120.01171875 C-114.83940191 130.76724913 -130.45040968 140.27187627 -146.96289062 148.03466797 C-149.04501517 149.02133149 -151.10747726 150.04324507 -153.171875 151.06640625 C-175.53842148 161.8946938 -199.69366003 169.45536957 -224.0625 174.125 C-224.78042725 174.26343323 -225.49835449 174.40186646 -226.23803711 174.54449463 C-244.13918894 177.93408319 -261.91554583 179.39244384 -280.125 179.3125 C-281.01796783 179.31034485 -281.91093567 179.3081897 -282.83096313 179.30596924 C-297.40752399 179.24980753 -311.61706848 178.51820085 -326 176 C-327.75497803 175.70198486 -327.75497803 175.70198486 -329.54541016 175.39794922 C-371.14691079 168.17678119 -423.15836731 152.39444505 -455 123 C-455 122.34 -455 121.68 -455 121 C-452.95056008 119.28101711 -450.88840604 117.66422329 -448.75 116.0625 C-443.85105382 112.3105937 -439.14161352 108.45552773 -434.625 104.25 C-433.65820312 103.35152344 -432.69140625 102.45304687 -431.6953125 101.52734375 C-430.00064437 99.93828538 -428.30768139 98.34740459 -426.6171875 96.75390625 C-425.91851563 96.11324219 -425.21984375 95.47257812 -424.5 94.8125 C-423.9121875 94.26207031 -423.324375 93.71164062 -422.71875 93.14453125 C-421 92 -421 92 -417 92 C-415.14243731 93.72509469 -413.56578952 95.39070911 -411.9375 97.3125 C-410.95630484 98.42223601 -409.97318338 99.5302714 -408.98828125 100.63671875 C-408.49021973 101.20052246 -407.9921582 101.76432617 -407.47900391 102.34521484 C-387.18385358 125.05246623 -360.22377503 140.83255905 -331 149 C-330.12214844 149.24556641 -329.24429688 149.49113281 -328.33984375 149.74414062 C-304.18537323 156.18193551 -276.60632108 156.59172819 -252.10351562 151.43994141 C-250.02772411 151.00579838 -247.94773985 150.62999272 -245.859375 150.26171875 C-211.93584072 143.90253633 -178.32778963 128.75287107 -149 111 C-147.88431641 110.33339355 -147.88431641 110.33339355 -146.74609375 109.65332031 C-131.21015281 100.34749197 -116.59281942 89.96779881 -103 78 C-102.30003906 77.39929688 -101.60007812 76.79859375 -100.87890625 76.1796875 C-96.61868096 72.51288236 -92.46391586 68.72653669 -88.3125 64.9375 C-87.76529297 64.44258057 -87.21808594 63.94766113 -86.65429688 63.43774414 C-83.10515713 60.17770149 -80.01321971 56.76233185 -77 53 C-78.35862034 49.82563355 -79.72217935 48.16441672 -82.51953125 46.16015625 C-83.21240234 45.65419922 -83.90527344 45.14824219 -84.61914062 44.62695312 C-85.34294922 44.11068359 -86.06675781 43.59441406 -86.8125 43.0625 C-91.57192455 39.63829863 -95.98308492 36.28523554 -100 32 C-92.47058251 28.78040243 -84.76826041 26.2731971 -76.94454956 23.8828125 C-73.37524949 22.7914167 -69.81059736 21.68506903 -66.24609375 20.578125 C-65.53495926 20.35741333 -64.82382477 20.13670166 -64.09114075 19.90930176 C-58.01362783 18.01695618 -51.96951072 16.03278082 -45.9375 14 C-37.07376695 11.01890655 -28.19816741 8.07740007 -19.3039856 5.18847656 C-17.90198766 4.73241737 -16.50051001 4.2747554 -15.09957886 3.81542969 C-13.14456647 3.17477071 -11.18779658 2.53979386 -9.23046875 1.90625 C-8.10020264 1.53822266 -6.96993652 1.17019531 -5.80541992 0.79101562 C-3 0 -3 0 0 0 Z " fill="#ED5C02" transform="translate(1107,345)"/>
<path d="M0 0 C-3.77339285 0 -4.47404966 -0.9701469 -7.375 -3.3125 C-25.7376574 -16.94574761 -48.38419486 -25.83582328 -70.69360352 -30.50805664 C-72.50778825 -30.89501358 -74.31416647 -31.31858269 -76.11694336 -31.75561523 C-86.68137067 -34.15251439 -96.88086959 -34.51406096 -107.6875 -34.4375 C-109.01102982 -34.43393494 -109.01102982 -34.43393494 -110.36129761 -34.43029785 C-122.54739101 -34.37889198 -134.24590254 -33.92213906 -146.03710938 -30.55566406 C-148.00942351 -29.99733235 -149.98777629 -29.51793774 -151.984375 -29.0546875 C-190.57638461 -19.68234231 -224.55948721 5.19307277 -245.43359375 38.87109375 C-254.07234293 53.30614177 -259.3518125 68.64199797 -263 85 C-263.1750708 85.56146729 -263.3501416 86.12293457 -263.53051758 86.70141602 C-264.23017038 90.12691322 -264.2031043 93.55242803 -264.23828125 97.03515625 C-264.25297203 98.21534332 -264.25297203 98.21534332 -264.26795959 99.41937256 C-264.6711499 123.0113194 -264.6711499 123.0113194 -260 146 C-259.78569336 146.70737305 -259.57138672 147.41474609 -259.35058594 148.14355469 C-254.52209177 163.92225832 -247.57543184 178.25851586 -237 191 C-236.30261719 191.86109375 -235.60523438 192.7221875 -234.88671875 193.609375 C-222.41274903 208.29536494 -205.53066485 218.02004764 -187 223 C-186.18144531 223.22429687 -185.36289062 223.44859375 -184.51953125 223.6796875 C-160.86259612 229.03459065 -135.39045151 222.97192489 -113.328125 214.26953125 C-110.86424386 213.32967049 -108.57023994 212.53871191 -106 212 C-123.02207022 230.4077013 -160.2991629 235.51074477 -184 240 C-184.97428955 240.18643066 -185.9485791 240.37286133 -186.95239258 240.56494141 C-206.02015087 243.28694295 -227.84751387 242.4523055 -246 236 C-247.25224365 235.58113525 -247.25224365 235.58113525 -248.52978516 235.15380859 C-268.87398539 228.1288882 -282.59089522 212.76766745 -294 195 C-294.39622559 194.38366699 -294.79245117 193.76733398 -295.20068359 193.13232422 C-302.84493458 180.97516425 -311.11643891 165.55055927 -312 151 C-310.4375 148.6875 -310.4375 148.6875 -308 146 C-294.13589834 125.72812026 -288.39131219 101.33434759 -292.6953125 77.08203125 C-294.89613817 69.93397139 -298.67423198 62.32576802 -304 57 C-303.77210981 51.43779127 -301.25731422 46.99193529 -298.6875 42.1875 C-298.2430957 41.35508789 -297.79869141 40.52267578 -297.34082031 39.66503906 C-289.18766495 24.74493448 -279.04136329 11.95663656 -267 0 C-266.4519873 -0.54527344 -265.90397461 -1.09054688 -265.33935547 -1.65234375 C-203.96284942 -62.01420963 -103.78071384 -69.00310073 0 0 Z " fill="#EE5803" transform="translate(1030,249)"/>
<path d="M0 0 C10.6425 -0.061875 21.285 -0.12375 32.25 -0.1875 C35.58641602 -0.21481201 38.92283203 -0.24212402 42.36035156 -0.27026367 C45.03710571 -0.27903447 47.71386388 -0.286677 50.390625 -0.29296875 C51.06913513 -0.30080887 51.74764526 -0.30864899 52.44671631 -0.31672668 C67.47017926 -0.48135013 82.3422061 2.096678 94.30078125 11.8828125 C102.58834464 20.64952838 104.32423597 31.67698997 104.21484375 43.296875 C103.53351567 55.04049349 99.50848665 65.35209414 90.9140625 73.4921875 C87.83250208 75.91970244 84.58608468 77.42715584 81 79 C82.2786141 82.47918832 83.76424898 85.3504008 85.90625 88.37109375 C86.48101074 89.18658691 87.05577148 90.00208008 87.64794922 90.84228516 C88.25912598 91.69870605 88.87030273 92.55512695 89.5 93.4375 C90.12277832 94.31970215 90.74555664 95.2019043 91.38720703 96.11083984 C94.28473697 100.20904072 97.20418034 104.29072121 100.1484375 108.35546875 C100.61314453 108.9987915 101.07785156 109.64211426 101.55664062 110.30493164 C102.41777319 111.49377299 103.28347313 112.67932298 104.15429688 113.86108398 C107 117.77996505 107 117.77996505 107 120 C102.87518183 120.2740934 98.75394478 120.47243071 94.62207031 120.60424805 C93.22074028 120.65922429 91.82003164 120.73405021 90.42089844 120.82983398 C78.86446197 121.60053784 78.86446197 121.60053784 74.4284668 117.79248047 C72.3438691 114.95687767 70.6490101 112.10652059 69 109 C68.07914439 107.55080233 67.14926816 106.10726294 66.20703125 104.671875 C65.40448732 103.36725958 64.60617672 102.06002879 63.8125 100.75 C61.39299296 96.77872511 58.95470818 92.88956384 56.19921875 89.140625 C54 86 54 86 54 84 C45.09 84 36.18 84 27 84 C27 95.88 27 107.76 27 120 C18.09 120 9.18 120 0 120 C0 80.4 0 40.8 0 0 Z " fill="#ED5B03" transform="translate(536,571)"/>
<path d="M0 0 C8.25 0 16.5 0 25 0 C30.47138519 5.68182308 33.80751424 9.17562068 37.53125 15.59399414 C40.01189054 19.65760992 43.02434984 23.29256751 46 27 C46.83158968 28.07414953 47.66012153 29.1506795 48.484375 30.23046875 C54.19780663 37.6874821 59.98295257 45.08518474 65.79394531 52.46630859 C68.54533332 55.96513844 71.27659858 59.47936355 74 63 C74.40669922 63.5254541 74.81339844 64.0509082 75.23242188 64.59228516 C76.5937291 66.35220447 77.95334391 68.11341901 79.3125 69.875 C79.74570557 70.43517822 80.17891113 70.99535645 80.62524414 71.57250977 C82.49998569 74.00623559 84.29495898 76.44243847 86 79 C86.33 52.93 86.66 26.86 87 0 C94.92 0 102.84 0 111 0 C111 39.6 111 79.2 111 120 C87 120 87 120 80.625 113.8125 C79.17089844 111.73217773 79.17089844 111.73217773 78.234375 109.93359375 C76.10901879 106.10176768 73.61256745 102.78526253 70.875 99.375 C67.79255904 95.38469227 64.7637127 91.35487847 61.75 87.3125 C56.23036705 79.9303547 50.54978961 72.67439868 44.87890625 65.40820312 C41.68656113 61.31655913 38.49948421 57.22082 35.3125 53.125 C34.7244458 52.37009277 34.1363916 51.61518555 33.53051758 50.83740234 C32.98032959 50.1305127 32.4301416 49.42362305 31.86328125 48.6953125 C31.38157471 48.07672363 30.89986816 47.45813477 30.40356445 46.82080078 C28.91821063 44.89389717 27.4597685 42.946358 26 41 C25.67 67.07 25.34 93.14 25 120 C16.75 120 8.5 120 0 120 C0 80.4 0 40.8 0 0 Z " fill="#EE5E03" transform="translate(665,571)"/>
<path d="M0 0 C0.33 0 0.66 0 1 0 C5.81264921 25.47182631 -4.07692577 49.36333686 -18.16015625 70.1953125 C-30.19871114 86.58173023 -43.96342713 101.48527117 -60 114 C-60.99515625 114.80050781 -61.9903125 115.60101563 -63.015625 116.42578125 C-86.67126173 135.28396642 -114.56164363 149.27856884 -143.00244141 159.25488281 C-144.75746899 159.90953255 -146.46664623 160.68443491 -148.1640625 161.4765625 C-153.87465877 163.97127727 -160.07374907 165.11247942 -166.125 166.5 C-166.78796082 166.65374084 -167.45092163 166.80748169 -168.13397217 166.96588135 C-179.67964146 169.6318706 -191.21969985 171.69200739 -203 173 C-204.0828125 173.13019531 -205.165625 173.26039063 -206.28125 173.39453125 C-231.04778134 175.9460283 -258.58062051 174.78988454 -279 159 C-280.24523437 158.07960938 -280.24523437 158.07960938 -281.515625 157.140625 C-289.31680818 150.41885081 -293.33114255 140.60590671 -294.34765625 130.56640625 C-295.09307165 112.19860625 -286.7641829 96.62506274 -275 83 C-274.22914063 82.10667969 -273.45828125 81.21335937 -272.6640625 80.29296875 C-268.99155928 76.12632473 -265.41840555 72.38924979 -261 69 C-262.53189266 73.06218304 -264.4334018 76.83876948 -266.4375 80.6875 C-272.3006864 92.29908606 -276.51327929 105.8116326 -272.84765625 118.84765625 C-268.73726585 129.28463833 -262.66467343 134.8656876 -252.75 139.6875 C-215.47596071 155.76548366 -166.66032393 143.33938719 -130.54931641 129.02880859 C-101.58768474 117.31650436 -73.72048953 102.53304875 -50 82 C-49.195625 81.30648437 -48.39125 80.61296875 -47.5625 79.8984375 C-45.00021332 77.64001174 -42.49256879 75.33518192 -40 73 C-39.49710449 72.53110352 -38.99420898 72.06220703 -38.47607422 71.57910156 C-24.88979789 58.80709248 -15.1172572 44.75560009 -7 28 C-6.33677734 26.68128906 -6.33677734 26.68128906 -5.66015625 25.3359375 C-2.04997445 17.40716086 -1.2294899 8.55054336 0 0 Z " fill="#E85604" transform="translate(731,328)"/>
<path d="M0 0 C10.03809737 7.08571579 18.29817623 16.34017289 21.41015625 28.45703125 C23.63384098 42.59193158 22.46420008 56.80530016 13.984375 68.75 C12.96703896 69.95840931 11.92534127 71.14676349 10.859375 72.3125 C10.33601562 72.92609375 9.81265625 73.5396875 9.2734375 74.171875 C1.26119145 82.9740608 -11.45027662 87.6409374 -23.19091797 88.45458984 C-39.26780984 89.14656006 -52.7549757 86.7929896 -65.546875 76.34765625 C-74.79854653 67.82069899 -79.73012877 56.98646388 -80.3203125 44.515625 C-80.67649911 29.95135994 -78.26125808 18.42128616 -67.890625 7.5 C-50.15126156 -9.02919056 -21.32895784 -12.08011771 0 0 Z " fill="#EE5D04" transform="translate(869.140625,604.6875)"/>
<path d="M0 0 C8.91 0 17.82 0 27 0 C27 15.51 27 31.02 27 47 C43.5 47 60 47 77 47 C77 31.49 77 15.98 77 0 C85.91 0 94.82 0 104 0 C104 39.6 104 79.2 104 120 C95.09 120 86.18 120 77 120 C77 103.5 77 87 77 70 C60.5 70 44 70 27 70 C27 86.5 27 103 27 120 C18.09 120 9.18 120 0 120 C0 80.4 0 40.8 0 0 Z " fill="#EC5C05" transform="translate(412,571)"/>
<path d="M0 0 C13.86 0 27.72 0 42 0 C42.22581516 19.95823897 42.40998783 39.91544238 42.51812172 59.87463474 C42.56966675 69.14223046 42.63992636 78.40897565 42.75439453 87.67602539 C42.85412894 95.75412453 42.91859605 103.83160773 42.94088495 111.91030544 C42.95391309 116.18755187 42.98447986 120.46303641 43.05730057 124.73971748 C43.12533307 128.76794023 43.14608853 132.79368124 43.13107681 136.82242393 C43.13382148 138.29833612 43.15363236 139.7743337 43.19205475 141.24974823 C43.46791541 152.39205689 43.46791541 152.39205689 39.80009174 156.40976238 C37.2691125 158.20679766 34.78654653 159.64232848 32 161 C31.03634521 161.60481201 30.07269043 162.20962402 29.07983398 162.83276367 C28.30969971 163.27338135 27.53956543 163.71399902 26.74609375 164.16796875 C25.87146484 164.66876953 24.99683594 165.16957031 24.09570312 165.68554688 C23.21849609 166.18119141 22.34128906 166.67683594 21.4375 167.1875 C20.55642578 167.69474609 19.67535156 168.20199219 18.76757812 168.72460938 C4.22392793 177 4.22392793 177 0 177 C0 118.59 0 60.18 0 0 Z " fill="#EE5D00" transform="translate(941,266)"/>
<path d="M0 0 C1.9765625 1.7890625 1.9765625 1.7890625 3.625 3.625 C4.17414063 4.21539063 4.72328125 4.80578125 5.2890625 5.4140625 C11.17959086 14.31709852 11.54745111 23.05214652 11.390625 33.4140625 C11.38314822 34.87949851 11.3774621 36.34494463 11.37347412 37.81039429 C11.35833044 41.63446521 11.31914927 45.45791126 11.2746582 49.28173828 C11.23345934 53.19685416 11.21541102 57.11207276 11.1953125 61.02734375 C11.152641 68.68521131 11.08238708 76.34243786 11 84 C3.41 84 -4.18 84 -12 84 C-12.33 80.37 -12.66 76.74 -13 73 C-13.68191406 73.74765625 -14.36382813 74.4953125 -15.06640625 75.265625 C-17.97168535 78.16579097 -21.26057394 79.98475886 -24.9375 81.75 C-25.82985352 82.20439453 -25.82985352 82.20439453 -26.74023438 82.66796875 C-36.37912283 87.4084057 -50.09650466 87.6558085 -60.5 84.875 C-68.34521204 82.01490566 -75.06221228 77.49503292 -79 70 C-81.66223989 63.40778693 -82.24729729 56.15967592 -80.1953125 49.31640625 C-76.79418094 41.61108405 -71.62239967 36.87641967 -63.84375 33.71875 C-52.2565068 29.92853026 -40.97252221 29.86469368 -28.9375 29.9375 C-27.48502759 29.94252586 -26.03255349 29.94708684 -24.58007812 29.95117188 C-21.05334985 29.96208958 -17.52668598 29.97929414 -14 30 C-14.12495669 28.56960448 -14.25967389 27.14005967 -14.3984375 25.7109375 C-14.47239746 24.91478027 -14.54635742 24.11862305 -14.62255859 23.29833984 C-15.21149143 19.71217317 -16.58176021 17.67279135 -19 15 C-28.8078289 9.82859931 -39.80825729 9.53056821 -50.33276367 12.64404297 C-55.78870542 14.37683134 -60.87403289 16.42569251 -66 19 C-66.66 19 -67.32 19 -68 19 C-69.20250158 16.75692972 -70.3869162 14.5071209 -71.5625 12.25 C-71.90474609 11.61578125 -72.24699219 10.9815625 -72.59960938 10.328125 C-73.91117736 7.78447799 -74.97831036 5.62791502 -75.078125 2.73828125 C-71.49762018 -3.03463413 -60.85419643 -5.20598158 -54.625 -6.8125 C-36.45365129 -11.03541907 -15.63268093 -11.5488626 0 0 Z " fill="#EE5D04" transform="translate(1076,607)"/>
<path d="M0 0 C14.19 0 28.38 0 43 0 C43 45.54 43 91.08 43 138 C15 147.33333333 15 147.33333333 0 149 C0 99.83 0 50.66 0 0 Z " fill="#EE6003" transform="translate(884,312)"/>
<path d="M0 0 C4.54265653 1.50001416 7.98359369 4.06372093 11.6875 7 C12.26822266 7.45117188 12.84894531 7.90234375 13.44726562 8.3671875 C15.74051561 10.15936899 17.94021831 11.94021831 20 14 C18.6587658 29.02182309 -0.45924207 46.02558888 -10.36767578 56.30029297 C-11.77965792 57.77056213 -13.17110422 59.26050149 -14.55859375 60.75390625 C-49.07120339 97.01251638 -104.42423566 116.73299618 -153.67089844 118.10205078 C-157.63582886 118.16137021 -161.59712438 118.1850778 -165.5625 118.1875 C-166.79057373 118.18830566 -168.01864746 118.18911133 -169.28393555 118.18994141 C-173.19071881 118.16686531 -177.09452711 118.09716418 -181 118 C-181.76112091 117.9836853 -182.52224182 117.96737061 -183.306427 117.95056152 C-196.12020076 117.63766309 -208.28074548 116.01224932 -220.8125 113.375 C-222.10655762 113.11005234 -222.10655762 113.11005234 -223.42675781 112.8397522 C-240.05504734 109.43266512 -256.12948883 105.06064245 -272 99 C-268.80621947 97.93540649 -267.76660601 98.05215033 -264.5703125 98.70703125 C-263.69914795 98.88065186 -262.8279834 99.05427246 -261.93041992 99.2331543 C-261.00463135 99.42433838 -260.07884277 99.61552246 -259.125 99.8125 C-257.20731693 100.19155233 -255.28934809 100.56916182 -253.37109375 100.9453125 C-252.44280762 101.12868164 -251.51452148 101.31205078 -250.55810547 101.50097656 C-212.75503321 108.87542586 -172.98372935 106.04174228 -136 96 C-135.20964355 95.79713379 -134.41928711 95.59426758 -133.60498047 95.38525391 C-97.61547542 86.11400449 -63.58805656 66.73411968 -36 42 C-34.97661532 41.09889834 -33.95317735 40.1978572 -32.9296875 39.296875 C-20.39597867 28.15424818 -7.58765548 15.17531097 0 0 Z " fill="#F15C03" transform="translate(1057,431)"/>
<path d="M0 0 C14.85 0 29.7 0 45 0 C45 36.3 45 72.6 45 110 C27.5792704 110 15.37718514 106.68859257 0 99 C0 66.33 0 33.66 0 0 Z " fill="#EC5C02" transform="translate(824,353)"/>
<path d="M0 0 C0.65790527 0.24097412 1.31581055 0.48194824 1.99365234 0.73022461 C42.95133599 16.15657041 73.05429644 45.80074683 92 85 C95.17192945 92.1106211 97.92488553 99.24972423 99 107 C96.33740643 108.01178555 93.66998325 109.00795978 91 110 C89.85402344 110.433125 88.70804688 110.86625 87.52734375 111.3125 C85.68849609 111.993125 85.68849609 111.993125 83.8125 112.6875 C82.64332031 113.12449219 81.47414063 113.56148438 80.26953125 114.01171875 C77.23810698 114.9280274 75.11754342 115.08388158 72 115 C71.86013672 114.36723145 71.72027344 113.73446289 71.57617188 113.08251953 C65.61116185 86.57083109 55.78728858 64.57756624 37.32080078 44.44238281 C36.21560745 43.23545449 35.13408928 42.0069032 34.05859375 40.7734375 C15.27093809 20.3465904 -13.40078603 9.23654957 -40 4 C-41.5778125 3.66162109 -41.5778125 3.66162109 -43.1875 3.31640625 C-62.01863158 -0.09673635 -82.35878337 0.99719612 -101 5 C-102.01835938 5.20496094 -103.03671875 5.40992188 -104.0859375 5.62109375 C-117.72745798 8.69712288 -131.70057325 13.17972062 -143.91796875 20.03125 C-144.60503906 20.3509375 -145.29210937 20.670625 -146 21 C-146.66 20.67 -147.32 20.34 -148 20 C-104.65710337 -8.78804637 -49.43329785 -18.19560988 0 0 Z " fill="#F35E05" transform="translate(981,235)"/>
<path d="M0 0 C8.25 0 16.5 0 25 0 C28.59964093 8.55972481 32.06019725 17.1629051 35.4375 25.8125 C38.43461253 33.46799321 41.43225396 41.12249989 44.5 48.75 C50 62.48410405 50 62.48410405 50 66 C50.66 66 51.32 66 52 66 C52.10689651 65.4521434 52.21379303 64.9042868 52.32392883 64.33982849 C53.484446 58.73203775 55.13217299 53.54356057 57.23046875 48.22265625 C57.54397781 47.41243515 57.85748688 46.60221405 58.18049622 45.7674408 C59.17681608 43.19674211 60.18194944 40.62960003 61.1875 38.0625 C61.84238754 36.37718253 62.49668843 34.69163697 63.15039062 33.00585938 C64.76719305 28.84052505 66.39126231 24.67806989 68.01751709 20.51641846 C69.67882029 16.26134796 71.33335837 12.00364883 72.98828125 7.74609375 C74.47908203 3.91177734 74.47908203 3.91177734 76 0 C84.25 0 92.5 0 101 0 C98.98106167 6.05681498 96.89856285 11.84845208 94.375 17.6796875 C94.03149002 18.48210373 93.68798004 19.28451996 93.33406067 20.11125183 C92.60276913 21.81917601 91.87001534 23.52647473 91.13589478 25.23318481 C89.21085567 29.71035793 87.29843379 34.19290586 85.38671875 38.67578125 C85.00787033 39.56387985 84.62902191 40.45197845 84.23869324 41.36698914 C79.34765844 52.85257763 74.64918098 64.41454093 70 76 C69.48759766 77.27472168 69.48759766 77.27472168 68.96484375 78.57519531 C67.30201972 82.71374215 65.64876965 86.85579521 64 91 C55.09 91 46.18 91 37 91 C34.525 84.998125 34.525 84.998125 32 78.875 C26.98116556 66.73158583 21.91074208 54.61027611 16.8125 42.5 C16.30009766 41.28197189 16.30009766 41.28197189 15.77734375 40.03933716 C12.54276615 32.35250723 9.30254152 24.66902599 5.98046875 17.01953125 C5.55209717 16.03210938 5.12372559 15.0446875 4.68237305 14.02734375 C3.92206426 12.28160067 3.15698771 10.53792217 2.38598633 8.796875 C0 3.32688392 0 3.32688392 0 0 Z " fill="#EE5D04" transform="translate(892,600)"/>
<path d="M0 0 C6.69884395 6.20776328 10.74187127 12.8934876 11.17944336 22.140625 C11.29878628 32.71170096 8.88961525 40.72208709 1.56640625 48.484375 C-6.38634793 55.7273499 -14.39899683 57.67382839 -25.01953125 57.484375 C-32.35495222 56.9438703 -38.0493802 53.20291053 -43.359375 48.23828125 C-50.0601879 40.08864393 -53.08922551 32.19272082 -52.84375 21.625 C-51.61012908 12.99960215 -46.47657127 4.18393798 -39.55078125 -1.15625 C-27.21946564 -9.49731534 -11.9696498 -8.93760275 0 0 Z " fill="#F16102" transform="translate(602.359375,236.76171875)"/>
<path d="M0 0 C11.1106428 1.66659642 19.8853155 6.99691541 27.28125 15.3984375 C31.88378842 22.36500701 33.73162055 28.60698553 33.625 36.9375 C33.61662109 37.84773926 33.60824219 38.75797852 33.59960938 39.69580078 C32.7349485 66.1461449 15.4411283 87.70745567 -2 106 C-2.72703125 106.77988281 -3.4540625 107.55976563 -4.203125 108.36328125 C-10.55659001 114.98735681 -17.6870522 120.49247339 -25 126 C-25.5475293 126.41894531 -26.09505859 126.83789062 -26.65917969 127.26953125 C-51.71138044 146.36558264 -80.83677274 159.2154825 -110.625 168.875 C-111.79836914 169.25648193 -112.97173828 169.63796387 -114.18066406 170.03100586 C-129.83037094 175 -129.83037094 175 -138 175 C-138 174.34 -138 173.68 -138 173 C-132.96855598 170.71837532 -128.01021451 169.07424502 -122.6875 167.625 C-115.99640241 165.72072637 -110.11495127 163.3370678 -104 160 C-102.06206981 159.02311421 -100.11635802 158.06284403 -98.16992188 157.10302734 C-75.23823787 145.7806412 -54.2728721 132.84160308 -35 116 C-33.72962891 114.91525391 -33.72962891 114.91525391 -32.43359375 113.80859375 C-28.20973289 110.1564907 -24.39963654 106.37836196 -20.80078125 102.109375 C-18.82832213 99.79890227 -16.75984818 97.59615076 -14.6875 95.375 C2.81950833 75.84337166 15.3617498 51.78698538 14.18359375 25.06640625 C13.49644076 17.33228009 10.14370166 11.57234346 5 6 C5 5.34 5 4.68 5 4 C4.360625 3.71125 3.72125 3.4225 3.0625 3.125 C1 2 1 2 0 0 Z " fill="#E45205" transform="translate(689,287)"/>
<path d="M0 0 C0.60199219 0.36867188 1.20398438 0.73734375 1.82421875 1.1171875 C3.18546875 1.9215625 3.18546875 1.9215625 4.57421875 2.7421875 C11.08242261 9.61195824 12.52237051 16.67469706 12.34301758 25.85375977 C11.93531099 34.08393563 10.15241546 40.29554865 4.01171875 46.0546875 C-4.39242058 52.55716027 -11.61782191 53.11451916 -22.17578125 52.1171875 C-29.56495437 50.28430369 -34.32127564 44.61151548 -38.27734375 38.3828125 C-41.72045526 31.11044613 -41.46523001 20.71980322 -39.33203125 13.10546875 C-36.25609757 6.31970965 -31.29628758 0.81319701 -24.34765625 -2.046875 C-16.22548715 -4.18744666 -7.47201571 -4.00533189 0 0 Z " fill="#FDFCFB" transform="translate(854.17578125,620.8828125)"/>
<path d="M0 0 C5.56875 -0.0825 11.1375 -0.165 16.875 -0.25 C18.61120605 -0.28641602 20.34741211 -0.32283203 22.13623047 -0.36035156 C39.59188615 -0.57459945 39.59188615 -0.57459945 46.62841797 5.37744141 C51.68167696 10.89483027 52.52000669 17.04339902 52.3828125 24.24609375 C51.60952473 29.80903124 48.56518347 33.39133921 44.75 37.3125 C35.57584624 42.94209435 26.33043423 42.36048594 15.9375 42.1875 C10.678125 42.125625 5.41875 42.06375 0 42 C0 28.14 0 14.28 0 0 Z " fill="#FDFAF7" transform="translate(562,592)"/>
<path d="M0 0 C0.33 0.66 0.66 1.32 1 2 C0.525625 3.216875 0.05125 4.43375 -0.4375 5.6875 C-3.97837517 15.9478034 -2.76148779 26.3212808 1.515625 36.125 C3.61172184 40.18480862 5.90040017 43.64468318 9 47 C9.45375 47.50660156 9.9075 48.01320313 10.375 48.53515625 C25.19649105 63.0092686 48.60576198 66.18740169 68.20996094 66.18530273 C70.46569331 66.18746708 72.72091787 66.20559003 74.9765625 66.22460938 C88.39977674 66.27849304 101.17100691 64.30878165 114.3125 61.625 C115.38193848 61.41020996 116.45137695 61.19541992 117.55322266 60.97412109 C124.73242592 59.51502098 131.87262345 57.92986603 138.9621582 56.08056641 C142.20364078 55.26552234 143.7510873 54.9170291 147 56 C127.83036714 64.56912943 107.77078948 72.46102791 87 76 C86.02587158 76.17571533 85.05174316 76.35143066 84.0480957 76.5324707 C76.0038865 77.89510185 68.21335398 78.31615316 60.0625 78.25 C58.83120361 78.24178223 57.59990723 78.23356445 56.33129883 78.22509766 C36.33831942 77.97858164 19.0027124 74.19466692 3.8125 60.375 C-4.99699151 51.23141599 -8.41596571 39.53287532 -8.44262695 27.1887207 C-8.23102307 17.36056471 -5.31338612 8.3050874 0 0 Z " fill="#F35A07" transform="translate(435,440)"/>
<path d="M0 0 C0.72822464 0.00141495 1.45644928 0.0028299 2.20674133 0.00428772 C4.52979664 0.00987966 6.85275513 0.02243063 9.17578125 0.03515625 C10.75195173 0.04017229 12.32812373 0.04473502 13.90429688 0.04882812 C17.76566223 0.05984645 21.62695533 0.07710551 25.48828125 0.09765625 C25.53405051 1.69374139 25.56666862 3.29020718 25.59375 4.88671875 C25.61332764 5.77568848 25.63290527 6.6646582 25.65307617 7.58056641 C25.33684422 12.41071661 22.55898008 15.05669906 19.23828125 18.28515625 C12.77659188 22.54399697 7.42123946 23.40278705 -0.13671875 23.53515625 C-0.86536133 23.55739258 -1.59400391 23.57962891 -2.34472656 23.60253906 C-7.49634279 23.58141626 -10.43327627 22.48411074 -14.51171875 19.09765625 C-17.3260945 14.87609263 -17.43646926 11.0533705 -16.51171875 6.09765625 C-12.36064911 0.29663464 -6.56475839 -0.0479685 0 0 Z " fill="#FDFCFA" transform="translate(1036.51171875,652.90234375)"/>
<path d="M0 0 C0.33 0 0.66 0 1 0 C1.36351562 1.62808594 1.36351562 1.62808594 1.734375 3.2890625 C2.07227534 4.73452507 2.41085313 6.17982939 2.75 7.625 C2.90726563 8.33785156 3.06453125 9.05070313 3.2265625 9.78515625 C4.87817494 16.70922379 7.87267103 22.08893896 14 26 C17.61957922 27.48259601 21.2854209 28.77698622 25 30 C22.32894279 31.78070481 20.62616812 32.50435396 17.625 33.375 C12.14543249 35.17783988 8.69621808 37.41665754 5.8125 42.5 C3.36846319 47.72449974 2.71891402 53.32436298 2 59 C1.34 59 0.68 59 0 59 C-0.16435547 58.05640625 -0.16435547 58.05640625 -0.33203125 57.09375 C-2.11756929 46.76380474 -2.11756929 46.76380474 -7.6875 38.1875 C-13.98457671 34.02905312 -20.65910676 32.44438872 -28 31 C-28 30.67 -28 30.34 -28 30 C-27.05898438 29.75765625 -26.11796875 29.5153125 -25.1484375 29.265625 C-23.90320313 28.93046875 -22.65796875 28.5953125 -21.375 28.25 C-19.53035156 27.76273438 -19.53035156 27.76273438 -17.6484375 27.265625 C-11.78813472 25.23271483 -7.32384109 22.27229966 -4 17 C-1.89014023 11.4616181 -0.6390922 5.87964827 0 0 Z " fill="#F56B08" transform="translate(685,209)"/>
<path d="M0 0 C3.97911581 2.06324523 6.64246569 4.20362669 9 8 C9.87570205 13.22265547 9.61426036 17.7259785 7.3125 22.5 C3.52250341 26.59729361 0.75757111 28.1814415 -4.8125 28.625 C-10.14791046 28.49720574 -12.78116803 26.36690611 -16.50390625 22.7265625 C-19.51084646 19.25641218 -19.4501851 16.06558105 -19.41796875 11.61328125 C-18.72933638 7.30771997 -16.32616197 4.68534178 -13 2 C-8.77606388 -0.54804244 -4.8185071 -0.68596802 0 0 Z " fill="#8C8C8C" transform="translate(606,724)"/>
<path d="M0 0 C4.01770924 1.9709517 6.52452222 4.28678334 9 8 C9.70880848 13.25012791 9.62519342 17.70330253 7.3125 22.5 C3.48682421 26.63586572 0.74938493 28.17901921 -4.875 28.5625 C-9.74979995 28.43153523 -12.18520505 26.95430758 -15.625 23.60546875 C-19.12099196 19.52350086 -19.54441214 16.78149211 -19.453125 11.578125 C-18.70290923 7.30965595 -16.31029142 4.67252885 -13 2 C-8.77530681 -0.53481591 -4.81589954 -0.8107575 0 0 Z " fill="#959595" transform="translate(906,724)"/>
<path d="M0 0 C1.65 0 3.3 0 5 0 C5.42152344 1.14339844 5.84304688 2.28679688 6.27734375 3.46484375 C6.83058521 4.95578259 7.38397847 6.44666511 7.9375 7.9375 C8.21529297 8.69224609 8.49308594 9.44699219 8.77929688 10.22460938 C9.91753451 13.88779139 9.91753451 13.88779139 12 17 C12.26554688 16.02417969 12.53109375 15.04835938 12.8046875 14.04296875 C13.16117593 12.75773414 13.51796239 11.47258216 13.875 10.1875 C14.22304688 8.92292969 14.57109375 7.65835938 14.9296875 6.35546875 C16 3 16 3 18 0 C20.625 -0.1875 20.625 -0.1875 23 0 C23.84124316 2.24732102 24.67314832 4.49738785 25.5 6.75 C25.73847656 7.38421875 25.97695313 8.0184375 26.22265625 8.671875 C27.44801758 12.03286607 28 14.36871587 28 18 C28.66 18 29.32 18 30 18 C30.16435547 17.18208984 30.16435547 17.18208984 30.33203125 16.34765625 C31.51009937 10.74464935 33.087035 5.3945613 35 0 C36.65 0 38.3 0 40 0 C37.62971149 9.09574126 34.84301919 18.04392769 32 27 C30.02 27 28.04 27 26 27 C25.3516711 24.77155786 24.70643631 22.5422154 24.0625 20.3125 C23.70285156 19.07113281 23.34320312 17.82976563 22.97265625 16.55078125 C22.19273569 13.70360138 21.52712784 10.90197746 21 8 C20.34 8 19.68 8 19 8 C18.87753906 8.84820313 18.75507812 9.69640625 18.62890625 10.5703125 C17.97793097 14.12035158 17.02558284 17.43525424 15.9375 20.875 C15.57527344 22.02742187 15.21304688 23.17984375 14.83984375 24.3671875 C14.56269531 25.23601563 14.28554688 26.10484375 14 27 C12.35 27 10.7 27 9 27 C6.03 18.09 3.06 9.18 0 0 Z " fill="#939393" transform="translate(622,725)"/>
<path d="M0 0 C2.7225 -0.0825 5.445 -0.165 8.25 -0.25 C9.10110352 -0.28641602 9.95220703 -0.32283203 10.82910156 -0.36035156 C14.51921604 -0.41454083 16.42675931 -0.40171286 19.51953125 1.765625 C21.79679153 5.20254553 21.69370269 8.01733046 21 12 C19.625 14.5 19.625 14.5 18 16 C17.34 16 16.68 16 16 16 C16.433125 16.62648438 16.86625 17.25296875 17.3125 17.8984375 C17.869375 18.71570313 18.42625 19.53296875 19 20.375 C19.556875 21.18710937 20.11375 21.99921875 20.6875 22.8359375 C22 25 22 25 22 27 C19.3125 27.5 19.3125 27.5 16 27 C13.52424998 24.19798835 11 20.83491389 11 17 C8.69 17 6.38 17 4 17 C4 20.3 4 23.6 4 27 C2.68 27 1.36 27 0 27 C0 18.09 0 9.18 0 0 Z " fill="#8F8F90" transform="translate(700,725)"/>
<path d="M0 0 C1.98 0 3.96 0 6 0 C7.33858524 2.28874173 8.67101014 4.58069656 10 6.875 C10.3815625 7.52597656 10.763125 8.17695312 11.15625 8.84765625 C14 13.7734375 14 13.7734375 14 16 C14.66 16 15.32 16 16 16 C16.3403125 14.824375 16.3403125 14.824375 16.6875 13.625 C18.40660933 8.87698375 20.68084721 4.47897448 23 0 C25.31 0 27.62 0 30 0 C30 8.91 30 17.82 30 27 C28.35 27 26.7 27 25 27 C24.67 21.06 24.34 15.12 24 9 C21.69 13.95 19.38 18.9 17 24 C15.68 24 14.36 24 13 24 C10.36 19.05 7.72 14.1 5 9 C4.67 14.61 4.34 20.22 4 26 C2.68 26 1.36 26 0 26 C0 17.42 0 8.84 0 0 Z " fill="#8E8E8E" transform="translate(518,725)"/>
<path d="M0 0 C14.73076923 0 14.73076923 0 19 3 C21 5 21 5 21.25 8.875 C21.16357075 12.05559626 20.92623463 14.36409999 19 17 C15.57905758 19.28062828 14.31812778 19.21925007 10.3125 19.125 C8.82169922 19.09792969 8.82169922 19.09792969 7.30078125 19.0703125 C6.54152344 19.04710937 5.78226563 19.02390625 5 19 C5 21.97 5 24.94 5 28 C3.35 28 1.7 28 0 28 C0 18.76 0 9.52 0 0 Z " fill="#949393" transform="translate(924,724)"/>
<path d="M0 0 C15.75757576 0 15.75757576 0 20 4 C21 5 21 5 21.3125 8.75 C21.28250539 12.09139976 21.01454648 12.97721051 19.125 15.9375 C15.93573511 19.03296298 14.21006709 19.11807778 9.875 19.0625 C8.96492187 19.05347656 8.05484375 19.04445313 7.1171875 19.03515625 C6.06917969 19.01775391 6.06917969 19.01775391 5 19 C5 21.97 5 24.94 5 28 C3.35 28 1.7 28 0 28 C0 18.76 0 9.52 0 0 Z " fill="#949494" transform="translate(830,724)"/>
<path d="M0 0 C15.26785714 -0.66964286 15.26785714 -0.66964286 18.9375 2.0625 C21 5 21 5 21.625 8.5 C20.91563321 12.47245401 19.82768293 14.17231707 17 17 C14.35541621 18.32229189 12.32238699 18.09677194 9.375 18.0625 C8.37210938 18.05347656 7.36921875 18.04445313 6.3359375 18.03515625 C5.56507813 18.02355469 4.79421875 18.01195312 4 18 C4 20.64 4 23.28 4 26 C2.68 26 1.36 26 0 26 C0 17.42 0 8.84 0 0 Z " fill="#868686" transform="translate(559,725)"/>
<path d="M0 0 C5 0 5 0 6.52978516 1.22167969 C6.94534668 1.78274414 7.3609082 2.34380859 7.7890625 2.921875 C8.25570312 3.53546875 8.72234375 4.1490625 9.203125 4.78125 C9.90695312 5.75578125 9.90695312 5.75578125 10.625 6.75 C11.34042969 7.70132813 11.34042969 7.70132813 12.0703125 8.671875 C13.39472493 10.43775825 14.69764426 12.21782898 16 14 C16.99 15.32 17.98 16.64 19 18 C19.33 12.06 19.66 6.12 20 0 C21.32 0 22.64 0 24 0 C24 8.58 24 17.16 24 26 C19 26 19 26 16.97265625 24.3125 C16.34230469 23.549375 15.71195313 22.78625 15.0625 22 C14.38316406 21.18660156 13.70382812 20.37320313 13.00390625 19.53515625 C10.26480933 16.06990499 7.59819924 12.57252396 5 9 C4.67 14.61 4.34 20.22 4 26 C2.68 26 1.36 26 0 26 C0 17.42 0 8.84 0 0 Z " fill="#8D8C8C" transform="translate(748,725)"/>
<path d="M0 0 C3.0625 1.5 3.0625 1.5 5 3 C4.67 4.32 4.34 5.64 4 7 C3.13375 6.67 2.2675 6.34 1.375 6 C-2.10955754 4.96753851 -4.40597233 4.46471928 -8 5 C-11.02033737 6.93692369 -11.02033737 6.93692369 -13 10 C-13.54444043 13.81108302 -13.37186656 16.13315746 -11.85546875 19.66796875 C-10.17116201 22.27461385 -10.17116201 22.27461385 -7.08203125 22.70703125 C-6.00308594 22.74183594 -4.92414062 22.77664063 -3.8125 22.8125 C-2.18248047 22.88404297 -2.18248047 22.88404297 -0.51953125 22.95703125 C0.31191406 22.97121094 1.14335938 22.98539063 2 23 C2 21.02 2 19.04 2 17 C0.68 17 -0.64 17 -2 17 C-2 15.68 -2 14.36 -2 13 C0.97 13 3.94 13 7 13 C7 17.29 7 21.58 7 26 C0.37552022 28.25514205 -5.81926966 29.56035828 -12.3125 26.375 C-15.72574595 23.35864311 -18.4776004 20.66530406 -19.3828125 16.046875 C-19.6746341 10.94972447 -18.39090366 7.9263095 -15 4 C-10.26225922 -0.18684069 -6.10316334 -0.97605737 0 0 Z " fill="#999898" transform="translate(800,724)"/>
<path d="M0 0 C6.27 0 12.54 0 19 0 C19 1.65 19 3.3 19 5 C14.38 5 9.76 5 5 5 C5 7.31 5 9.62 5 12 C8.96 12 12.92 12 17 12 C17 13.32 17 14.64 17 16 C12.71 16 8.42 16 4 16 C4 18.31 4 20.62 4 23 C9.28 23 14.56 23 20 23 C20 24.65 20 26.3 20 28 C13.4 28 6.8 28 0 28 C0 18.76 0 9.52 0 0 Z " fill="#9D9D9D" transform="translate(671,724)"/>
<path d="M0 0 C6.27 0 12.54 0 19 0 C19 1.32 19 2.64 19 4 C14.38 4 9.76 4 5 4 C5 6.31 5 8.62 5 11 C8.96 11 12.92 11 17 11 C17 12.32 17 13.64 17 15 C12.71 15 8.42 15 4 15 C4 17.31 4 19.62 4 22 C9.28 22 14.56 22 20 22 C20 23.65 20 25.3 20 27 C13.4 27 6.8 27 0 27 C0 18.09 0 9.18 0 0 Z " fill="#959596" transform="translate(979,725)"/>
<path d="M0 0 C2.63016161 2.1727422 4.47336894 3.94673788 6 7 C6.41204834 11.63554388 5.87454146 14.30416098 3 18 C-0.20937409 20.32402951 -3.11506021 20.47570691 -7 20 C-9.69990662 18.20006226 -11.5418865 16.916227 -13 14 C-13.47844415 10.9173662 -13.55149629 8.07565238 -13 5 C-9.13875112 0.3853367 -5.96045269 -1.08371867 0 0 Z " fill="#F9F8F9" transform="translate(605,728)"/>
<path d="M0 0 C2.91611944 1.84891489 5.42997066 3.85994132 7 7 C7.41204834 11.63554388 6.87454146 14.30416098 4 18 C0.79062591 20.32402951 -2.11506021 20.47570691 -6 20 C-8.69990662 18.20006226 -10.5418865 16.916227 -12 14 C-12.57950681 10.26621561 -13.03003198 6.55395828 -10.87109375 3.296875 C-7.40704811 0.14938705 -4.5430607 -0.94647098 0 0 Z " fill="#F9F9F9" transform="translate(904,728)"/>
<path d="M0 0 C6.27 0 12.54 0 19 0 C19 1.32 19 2.64 19 4 C14.38 4 9.76 4 5 4 C5 6.31 5 8.62 5 11 C8.96 11 12.92 11 17 11 C17 12.32 17 13.64 17 15 C12.71 15 8.42 15 4 15 C4 17.64 4 20.28 4 23 C8.95 23 13.9 23 19 23 C19 23.99 19 24.98 19 26 C12.73 26 6.46 26 0 26 C0 17.42 0 8.84 0 0 Z " fill="#908F8F" transform="translate(860,725)"/>
<path d="M0 0 C6.27 0 12.54 0 19 0 C19 1.32 19 2.64 19 4 C14.05 4 9.1 4 4 4 C4 6.31 4 8.62 4 11 C8.29 11 12.58 11 17 11 C17 12.32 17 13.64 17 15 C12.71 15 8.42 15 4 15 C4 17.64 4 20.28 4 23 C8.95 23 13.9 23 19 23 C19 23.99 19 24.98 19 26 C12.73 26 6.46 26 0 26 C0 17.42 0 8.84 0 0 Z " fill="#8E8D8E" transform="translate(489,725)"/>
<path d="M0 0 C20.13 0 40.26 0 61 0 C61 1.32 61 2.64 61 4 C40.87 4 20.74 4 0 4 C0 2.68 0 1.36 0 0 Z " fill="#909091" transform="translate(410,737)"/>
<path d="M0 0 C23.43 0 46.86 0 71 0 C71 0.99 71 1.98 71 3 C47.57 3 24.14 3 0 3 C0 2.01 0 1.02 0 0 Z " fill="#828283" transform="translate(1017,737)"/>
<path d="M0 0 C2.31 0 4.62 0 7 0 C7 8.91 7 17.82 7 27 C5.35 27 3.7 27 2 27 C1.67 21.06 1.34 15.12 1 9 C0.01 10.32 -0.98 11.64 -2 13 C-2.99 12.01 -3.98 11.02 -5 10 C-3.35 6.7 -1.7 3.4 0 0 Z " fill="#969595" transform="translate(541,725)"/>
<path d="M0 0 C3.20280069 0.26690006 4.7943912 0.83329016 7.3125 2.875 C9.82982213 7.53670765 9.76052836 11.81319657 9 17 C6.96240708 21.14795701 5.27657105 23.32755525 1 25 C-1.578125 25.1953125 -1.578125 25.1953125 -4.25 25.125 C-5.14203125 25.10695313 -6.0340625 25.08890625 -6.953125 25.0703125 C-7.62859375 25.04710937 -8.3040625 25.02390625 -9 25 C-8.505 23.515 -8.505 23.515 -8 22 C-6.2578125 21.375 -6.2578125 21.375 -4.125 21 C-0.90344567 20.30843199 1.01838167 19.79757882 3 17 C4.45887389 14.08225221 4.36823233 12.25271895 4 9 C2.55430717 6.47761984 0.85260977 4.23636465 -1 2 C-0.67 1.34 -0.34 0.68 0 0 Z " fill="#908F8F" transform="translate(906,726)"/>
<path d="M0 0 C1.32 0 2.64 0 4 0 C4 7.59 4 15.18 4 23 C7.96 23 11.92 23 16 23 C16 23.99 16 24.98 16 26 C10.72 26 5.44 26 0 26 C0 17.42 0 8.84 0 0 Z " fill="#8A8A8A" transform="translate(954,725)"/>
<path d="M0 0 C7.2 -0.36 7.2 -0.36 10.5 1.125 C12 3 12 3 12.375 6.0625 C12 9 12 9 10 11 C7.6171875 11.1953125 7.6171875 11.1953125 4.875 11.125 C2.461875 11.063125 2.461875 11.063125 0 11 C0 7.37 0 3.74 0 0 Z " fill="#F1F1F1" transform="translate(563,728)"/>
<path d="M0 0 C6.8359375 -0.1953125 6.8359375 -0.1953125 9 0 C11 2 11 2 11.25 5 C11 8 11 8 9 10 C5.98173347 10.27240673 3.03629378 10.08675125 0 10 C0 6.7 0 3.4 0 0 Z " fill="#FBFCFC" transform="translate(929,729)"/>
<path d="M0 0 C6.8359375 -0.1953125 6.8359375 -0.1953125 9 0 C11 2 11 2 11.25 5 C11 8 11 8 9 10 C5.98173347 10.27240673 3.03629378 10.08675125 0 10 C0 6.7 0 3.4 0 0 Z " fill="#FBFBFB" transform="translate(835,729)"/>
<path d="M0 0 C1.32 0 2.64 0 4 0 C4 8.58 4 17.16 4 26 C2.68 26 1.36 26 0 26 C0 17.42 0 8.84 0 0 Z " fill="#8A8A8A" transform="translate(732,725)"/>
<path d="M0 0 C0.33 0.99 0.66 1.98 1 3 C6.28 3 11.56 3 17 3 C17 4.65 17 6.3 17 8 C10.4 8 3.8 8 -3 8 C-1 1 -1 1 0 0 Z " fill="#A0A0A0" transform="translate(982,744)"/>
<path d="M0 0 C-6.75156416 2.83621965 -13.51769377 5.19466356 -20.5625 7.1875 C-21.88411133 7.57711914 -21.88411133 7.57711914 -23.23242188 7.97460938 C-28.8384821 9.57574982 -34.18918925 10.51035808 -40 11 C-40 10.34 -40 9.68 -40 9 C-34.87690221 6.70204057 -29.75320453 4.85585966 -24.375 3.25 C-23.63765625 3.01667969 -22.9003125 2.78335937 -22.140625 2.54296875 C-17.93134269 1.28320146 -15.33580613 0.95522744 -11 2 C-8.59472433 1.45697929 -8.59472433 1.45697929 -6.3125 0.5 C-2.20396601 -1.101983 -2.20396601 -1.101983 0 0 Z " fill="#DE3C06" transform="translate(591,451)"/>
<path d="M0 0 C-2.475 1.485 -2.475 1.485 -5 3 C-4.67 3.66 -4.34 4.32 -4 5 C-5.16015625 5.36351562 -6.3203125 5.72703125 -7.515625 6.1015625 C-16.0218165 8.82175646 -23.97991347 11.65553538 -31.8125 15.99609375 C-32.534375 16.32738281 -33.25625 16.65867188 -34 17 C-34.66 16.67 -35.32 16.34 -36 16 C-28.5618824 11.0991218 -20.95665243 6.8153061 -12.9375 2.9375 C-12.11660889 2.53152588 -11.29571777 2.12555176 -10.44995117 1.70727539 C-9.281698 1.15414673 -9.281698 1.15414673 -8.08984375 0.58984375 C-7.05138306 0.09278931 -7.05138306 0.09278931 -5.99194336 -0.41430664 C-3.62178298 -1.11120758 -2.30686151 -0.79263051 0 0 Z " fill="#F87121" transform="translate(869,239)"/>
<path d="M0 0 C1.64574566 -0.02688151 3.29161413 -0.04634123 4.9375 -0.0625 C5.85402344 -0.07410156 6.77054688 -0.08570313 7.71484375 -0.09765625 C10 0 10 0 11 1 C11.125 4.5 11.125 4.5 11 8 C10 9 10 9 7.71484375 9.09765625 C6.34005859 9.08025391 6.34005859 9.08025391 4.9375 9.0625 C4.01839844 9.05347656 3.09929688 9.04445313 2.15234375 9.03515625 C1.44207031 9.02355469 0.73179687 9.01195312 0 9 C0 6.03 0 3.06 0 0 Z " fill="#FAFAFA" transform="translate(705,729)"/>
<path d="M0 0 C2.5 1.5625 2.5 1.5625 5 4 C5.68262444 8.17159379 5.45740064 10.22072483 3.3125 13.875 C0.65397863 16.31796559 -0.40080201 17 -4 17 C-6.46884083 16.18219648 -8.65281203 15.15058234 -11 14 C-11 13.67 -11 13.34 -11 13 C-10.36191406 12.93941406 -9.72382812 12.87882813 -9.06640625 12.81640625 C-8.24011719 12.73261719 -7.41382813 12.64882813 -6.5625 12.5625 C-5.73878906 12.48128906 -4.91507813 12.40007813 -4.06640625 12.31640625 C-2.01337975 12.21069185 -2.01337975 12.21069185 -1 11 C-0.75266863 6.85723125 -0.75266863 6.85723125 -2 3 C-1.34 2.01 -0.68 1.02 0 0 Z " fill="#919192" transform="translate(575,726)"/>
<path d="M0 0 C-3.01794215 1.29849566 -6.03983991 2.58752945 -9.0625 3.875 C-9.91005859 4.23980469 -10.75761719 4.60460937 -11.63085938 4.98046875 C-16.37162513 6.99392139 -21.01120776 8.71387988 -26 10 C-26.66 9.34 -27.32 8.68 -28 8 C-27.67 7.67 -27.34 7.34 -27 7 C-27.66 6.34 -28.32 5.68 -29 5 C-24.73221412 3.96612764 -20.46036802 2.95014502 -16.1875 1.9375 C-14.36508789 1.49567383 -14.36508789 1.49567383 -12.50585938 1.04492188 C-11.34248047 0.77099609 -10.17910156 0.49707031 -8.98046875 0.21484375 C-7.90692139 -0.04176025 -6.83337402 -0.29836426 -5.72729492 -0.56274414 C-3 -1 -3 -1 0 0 Z " fill="#F96915" transform="translate(582,496)"/>
<path d="M0 0 C1.22589844 0.01353516 1.22589844 0.01353516 2.4765625 0.02734375 C3.41628906 0.04474609 3.41628906 0.04474609 4.375 0.0625 C4.375 0.3925 4.375 0.7225 4.375 1.0625 C3.529375 1.26875 2.68375 1.475 1.8125 1.6875 C-2.45997791 3.39649116 -5.69671014 5.47898506 -8.625 9.0625 C-9.67171248 12.77949685 -9.67171248 12.77949685 -9.625 16.0625 C-10.615 14.7425 -11.605 13.4225 -12.625 12.0625 C-13.615 12.5575 -13.615 12.5575 -14.625 13.0625 C-14.54930022 9.8831091 -14.25731963 7.75360312 -12.0703125 5.36328125 C-7.98105803 1.85941798 -5.48447024 -0.07834957 0 0 Z " fill="#979697" transform="translate(601.625,723.9375)"/>
<path d="M0 0 C5.94 0 11.88 0 18 0 C18 0.99 18 1.98 18 3 C13.05 3 8.1 3 3 3 C3 3.99 3 4.98 3 6 C2.34 6 1.68 6 1 6 C0.67 6.66 0.34 7.32 0 8 C0 5.36 0 2.72 0 0 Z " fill="#888787" transform="translate(980,725)"/>
<path d="M0 0 C1.65 0 3.3 0 5 0 C8.58239862 8.80672994 8.58239862 8.80672994 8 13 C7.35899753 14.3458596 6.69532114 15.68138302 6 17 C3.67669016 11.39473306 1.53254356 5.87475032 0 0 Z " fill="#8D8D8E" transform="translate(622,725)"/>
<path d="M0 0 C1.38445141 4.15335424 -0.20485115 6.86586436 -1.75 10.75 C-2.01554688 11.4409375 -2.28109375 12.131875 -2.5546875 12.84375 C-3.08958726 14.22514161 -3.63578295 15.60221401 -4.19335938 16.97460938 C-4.72808304 18.31724481 -5.23005844 19.67342038 -5.69726562 21.04101562 C-6.390625 22.953125 -6.390625 22.953125 -8 26 C-10.6875 26.9375 -10.6875 26.9375 -13 27 C-12.48050781 25.97261719 -11.96101562 24.94523437 -11.42578125 23.88671875 C-7.4496006 15.99541204 -3.56444172 8.08854083 0 0 Z " fill="#FCEEDF" transform="translate(657,284)"/>
<path d="M0 0 C3.58451514 1.28185888 6.24507437 2.76168326 9.171875 5.1875 C9.91824219 5.80367187 10.66460938 6.41984375 11.43359375 7.0546875 C12.19800781 7.69664062 12.96242188 8.33859375 13.75 9 C14.52988281 9.64195312 15.30976562 10.28390625 16.11328125 10.9453125 C21.86221168 15.72442336 21.86221168 15.72442336 23 18 C18.20138693 15.84427789 13.98917287 12.6802159 9.6640625 9.72070312 C5.89035988 7.16812807 2.13794358 4.94086208 -2 3 C-1.34 2.67 -0.68 2.34 0 2 C0 1.34 0 0.68 0 0 Z " fill="#F55919" transform="translate(1007,232)"/>
<path d="M0 0 C8.02715768 1.19960703 16.0237581 2.49746145 24 4 C23.34 5.32 22.68 6.64 22 8 C14.36133302 6.26751883 7.18463616 4.13135691 0 1 C0 0.67 0 0.34 0 0 Z " fill="#F77628" transform="translate(785,529)"/>
<path d="M0 0 C0.66 0.33 1.32 0.66 2 1 C-9.9140625 6.95703125 -9.9140625 6.95703125 -12.01269531 8.00244141 C-13.81546414 8.90736935 -15.60761529 9.83337298 -17.3984375 10.76171875 C-20 12 -20 12 -22 12 C-22 11.34 -22 10.68 -22 10 C-22.66 9.67 -23.32 9.34 -24 9 C-23.41508789 8.79842285 -22.83017578 8.5968457 -22.22753906 8.38916016 C-19.56737162 7.47060571 -16.90868088 6.54784791 -14.25 5.625 C-13.32960938 5.30789063 -12.40921875 4.99078125 -11.4609375 4.6640625 C-10.57148437 4.3546875 -9.68203125 4.0453125 -8.765625 3.7265625 C-7.94868164 3.44377441 -7.13173828 3.16098633 -6.29003906 2.86962891 C-3.97489417 2.04758366 -3.97489417 2.04758366 -1.82714844 0.82958984 C-1.22418945 0.5558252 -0.62123047 0.28206055 0 0 Z " fill="#EF6E36" transform="translate(922,461)"/>
<path d="M0 0 C1.4370809 -0.05422947 2.87475462 -0.09289723 4.3125 -0.125 C5.11300781 -0.14820313 5.91351562 -0.17140625 6.73828125 -0.1953125 C9 0 9 0 12 2 C11.67 3.32 11.34 4.64 11 6 C5.06 4.515 5.06 4.515 -1 3 C-0.67 2.01 -0.34 1.02 0 0 Z " fill="#8F8E8E" transform="translate(793,725)"/>
<path d="M0 0 C-2.9430108 2.48657163 -5.21710094 3.51280611 -9 4.1875 C-9.845625 4.34605469 -10.69125 4.50460937 -11.5625 4.66796875 C-14 5 -14 5 -18 5 C-18 4.34 -18 3.68 -18 3 C-11.92122066 -0.24201565 -6.81598387 -0.33278764 0 0 Z " fill="#DB420D" transform="translate(569,457)"/>
<path d="M0 0 C4.62 0 9.24 0 14 0 C14 0.99 14 1.98 14 3 C8.72 3 3.44 3 -2 3 C-1.34 2.67 -0.68 2.34 0 2 C0 1.34 0 0.68 0 0 Z " fill="#807F80" transform="translate(865,748)"/>
<path d="M0 0 C4.95 0 9.9 0 15 0 C15 0.99 15 1.98 15 3 C10.38 3 5.76 3 1 3 C0.67 2.01 0.34 1.02 0 0 Z " fill="#807F80" transform="translate(493,748)"/>
<path d="M0 0 C4.29 0 8.58 0 13 0 C13 0.99 13 1.98 13 3 C8.05 3 3.1 3 -2 3 C-1.34 2.67 -0.68 2.34 0 2 C0 1.34 0 0.68 0 0 Z " fill="#828182" transform="translate(677,748)"/>
<path d="M0 0 C-1 3 -1 3 -2.7421875 3.984375 C-3.44601562 4.23703125 -4.14984375 4.4896875 -4.875 4.75 C-5.57367187 5.01296875 -6.27234375 5.2759375 -6.9921875 5.546875 C-9 6 -9 6 -12 5 C-11.34 5 -10.68 5 -10 5 C-10 4.01 -10 3.02 -10 2 C-6.5980513 -0.09350689 -3.94727588 -0.17942163 0 0 Z " fill="#E24004" transform="translate(900,471)"/>
<path d="M0 0 C3.63 0 7.26 0 11 0 C11 0.99 11 1.98 11 3 C7.04 3 3.08 3 -1 3 C-0.67 2.01 -0.34 1.02 0 0 Z " fill="#838283" transform="translate(678,725)"/>
<path d="M0 0 C0.33 0 0.66 0 1 0 C1.27573092 2.10094974 1.51978976 4.20607635 1.75 6.3125 C1.88921875 7.48425781 2.0284375 8.65601563 2.171875 9.86328125 C2.11515625 10.89839844 2.0584375 11.93351562 2 13 C0.68 13.99 -0.64 14.98 -2 16 C-1.34 10.72 -0.68 5.44 0 0 Z " fill="#F68026" transform="translate(731,328)"/>
<path d="M0 0 C3.375 -0.1875 3.375 -0.1875 7 0 C7.66 0.99 8.32 1.98 9 3 C8 4 8 4 5.93359375 4.09765625 C5.10988281 4.08605469 4.28617188 4.07445312 3.4375 4.0625 C2.61121094 4.05347656 1.78492188 4.04445313 0.93359375 4.03515625 C0.29550781 4.02355469 -0.34257813 4.01195312 -1 4 C-0.67 2.68 -0.34 1.36 0 0 Z " fill="#8D8D8E" transform="translate(792,748)"/>
<path d="M0 0 C0.474375 0.639375 0.94875 1.27875 1.4375 1.9375 C5.05420035 4.84850272 8.47204894 4.80649782 13 5 C13 5.33 13 5.66 13 6 C8.05 6 3.1 6 -2 6 C-1 1 -1 1 0 0 Z " fill="#858485" transform="translate(982,744)"/>
<path d="M0 0 C0.85078125 0.56074219 0.85078125 0.56074219 1.71875 1.1328125 C-9.80289009 6.50411091 -9.80289009 6.50411091 -15.28125 8.1328125 C-11.97064444 4.24644945 -5.34424895 -2.03154669 0 0 Z " fill="#FA7832" transform="translate(848.28125,247.8671875)"/>
<path d="M0 0 C7.26 0 14.52 0 22 0 C22 0.33 22 0.66 22 1 C18.37 1 14.74 1 11 1 C11 1.66 11 2.32 11 3 C7.37 2.34 3.74 1.68 0 1 C0 0.67 0 0.34 0 0 Z " fill="#DA3200" transform="translate(420,315)"/>
<path d="M0 0 C1.3274855 3.98245651 -0.00092171 6.44789543 -1.4375 10.1875 C-1.68048828 10.84169922 -1.92347656 11.49589844 -2.17382812 12.16992188 C-2.7743293 13.78303286 -3.38609203 15.3919435 -4 17 C-5.1796875 15.421875 -5.1796875 15.421875 -6 13 C-4.8828125 9.765625 -4.8828125 9.765625 -3.125 6.25 C-2.55007813 5.07953125 -1.97515625 3.9090625 -1.3828125 2.703125 C-0.92648437 1.81109375 -0.47015625 0.9190625 0 0 Z " fill="#FADEC1" transform="translate(657,284)"/>
<path d="M0 0 C-0.99 0.66 -1.98 1.32 -3 2 C-3 2.66 -3 3.32 -3 4 C-2.01 4.33 -1.02 4.66 0 5 C-1.41750563 4.88490339 -2.83401169 4.75746342 -4.25 4.625 C-5.03890625 4.55539063 -5.8278125 4.48578125 -6.640625 4.4140625 C-9.085877 3.98492887 -10.84836903 3.21399362 -13 2 C-11.21089097 1.47044766 -9.41860852 0.9516063 -7.625 0.4375 C-6.62726562 0.14746094 -5.62953125 -0.14257812 -4.6015625 -0.44140625 C-2 -1 -2 -1 0 0 Z " fill="#F9893B" transform="translate(670,237)"/>
<path d="M0 0 C-5.78217394 3.05498079 -9.5589964 4.64451156 -16 3 C-13.18207306 1.47870459 -10.56006978 0.51521029 -7.4375 -0.1875 C-6.67308594 -0.36667969 -5.90867187 -0.54585938 -5.12109375 -0.73046875 C-3 -1 -3 -1 0 0 Z " fill="#FA853F" transform="translate(582,496)"/>
<path d="M0 0 C1.51706494 3.03412988 0.28825065 4.90636849 -0.75 8.0625 C-1.09546875 9.14660156 -1.4409375 10.23070312 -1.796875 11.34765625 C-2.19390625 12.22292969 -2.5909375 13.09820312 -3 14 C-3.99 14.33 -4.98 14.66 -6 15 C-3.10933941 4.44191344 -3.10933941 4.44191344 0 0 Z " fill="#F37F46" transform="translate(435,440)"/>
<path d="M0 0 C6.0546875 -0.1953125 6.0546875 -0.1953125 8 0 C8.66 0.66 9.32 1.32 10 2 C9 3 9 3 6.71484375 3.09765625 C5.34005859 3.08025391 5.34005859 3.08025391 3.9375 3.0625 C3.01839844 3.05347656 2.09929688 3.04445313 1.15234375 3.03515625 C0.44207031 3.02355469 -0.26820313 3.01195312 -1 3 C-0.67 2.01 -0.34 1.02 0 0 Z " fill="#808080" transform="translate(898,748)"/>
<path d="M0 0 C0.99 0.99 1.98 1.98 3 3 C2.67 3.99 2.34 4.98 2 6 C1.34 6 0.68 6 0 6 C-0.33 7.32 -0.66 8.64 -1 10 C-1.66 7.69 -2.32 5.38 -3 3 C-2.34 3 -1.68 3 -1 3 C-0.67 2.01 -0.34 1.02 0 0 Z " fill="#9E9E9E" transform="translate(847,726)"/>
<path d="M0 0 C2.14729141 0.28073073 4.29283193 0.57488499 6.4375 0.875 C7.63246094 1.03742187 8.82742188 1.19984375 10.05859375 1.3671875 C11.51458984 1.68042969 11.51458984 1.68042969 13 2 C13.33 2.66 13.66 3.32 14 4 C9.02906176 3.58846263 4.55491614 3.20399168 0 1 C0 0.67 0 0.34 0 0 Z " fill="#F97C33" transform="translate(785,529)"/>
<path d="M0 0 C2.125 0.375 2.125 0.375 4 1 C1.47211993 3.79872437 -0.20411134 5.45773019 -4 6 C-2.84826645 3.53199953 -1.95216435 1.95216435 0 0 Z " fill="#FC8624" transform="translate(606,432)"/>
<path d="M0 0 C4.1724106 0.51881113 6.25416821 1.71151274 9.3125 4.5625 C10.00988281 5.20316406 10.70726562 5.84382812 11.42578125 6.50390625 C11.94527344 6.99761719 12.46476562 7.49132812 13 8 C9.18008284 8 7.88692091 6.76738773 4.8125 4.5625 C3.91144531 3.92441406 3.01039063 3.28632813 2.08203125 2.62890625 C1.39496094 2.09136719 0.70789063 1.55382812 0 1 C0 0.67 0 0.34 0 0 Z " fill="#F67740" transform="translate(1017,241)"/>
<path d="M0 0 C-0.33 0.99 -0.66 1.98 -1 3 C-3.31 3.33 -5.62 3.66 -8 4 C-8 3.34 -8 2.68 -8 2 C-4.91190305 0.23537317 -3.76687864 0 0 0 Z " fill="#F66216" transform="translate(856,244)"/>
<path d="M0 0 C2.97 0.33 5.94 0.66 9 1 C9 1.99 9 2.98 9 4 C2.25 2.25 2.25 2.25 0 0 Z " fill="#F2560D" transform="translate(420,316)"/>
<path d="M0 0 C1.98 0 3.96 0 6 0 C5.67 0.99 5.34 1.98 5 3 C2.9375 3.6875 2.9375 3.6875 1 4 C0.67 2.68 0.34 1.36 0 0 Z " fill="#EB4E12" transform="translate(894,471)"/>
<path d="M0 0 C1.32 0.33 2.64 0.66 4 1 C2.75453595 4.73639216 1.36595047 5.18756513 -2 7 C-1.34 4.69 -0.68 2.38 0 0 Z " fill="#F16936" transform="translate(503,457)"/>
<path d="M0 0 C0.66 0 1.32 0 2 0 C2.33 1.65 2.66 3.3 3 5 C2.34 5 1.68 5 1 5 C0.34 6.32 -0.32 7.64 -1 9 C-0.67 6.03 -0.34 3.06 0 0 Z " fill="#F89647" transform="translate(662,252)"/>
<path d="M0 0 C0 0.33 0 0.66 0 1 C-4.455 1.495 -4.455 1.495 -9 2 C-9 1.34 -9 0.68 -9 0 C-5.52176885 -1.15941038 -3.54104422 -0.70820884 0 0 Z " fill="#D74C1B" transform="translate(560,460)"/>
</svg>
